<svg id="Layer_1" data-name="Layer 1" xmlns="http://www.w3.org/2000/svg" viewBox="0 0 135.01 45.13"><defs><style>.cls-1{fill:#fff;}</style></defs><title>Tieto_Logo_white</title><path class="cls-1" d="M51,30.32c.19,4.51,2.88,7.51,7.6,7.51,2.69,0,5.31-1.21,6.35-3.63H75.41c-2,7.63-9.31,10.94-16.91,10.94-11.07,0-18.6-6.49-18.6-17.55,0-10.11,8.31-17.36,18.34-17.36,12.19,0,18.28,8.91,17.75,20.09Zm13.82-6c-.2-3.69-2.89-6.74-6.61-6.74-3.94,0-6.56,2.74-7.21,6.74Z"/><path class="cls-1" d="M117.06,10.22c10.55,0,18,7.57,18,17.49s-7.41,17.42-18,17.42-17.88-7.5-17.88-17.42S106.52,10.22,117.06,10.22Zm0,26.64c5.18,0,6.81-5,6.81-9.15s-1.64-9.22-6.81-9.22-6.74,5-6.74,9.22S111.89,36.87,117.06,36.87Z"/><path class="cls-1" d="M23.65,18.27H16.77V33c0,2.69,1.57,3.27,4,3.27.91,0,1.9-.13,2.89-.13v8.19c-2,.06-4.06.33-6.09.33-9.5,0-11.93-2.75-11.93-12V18.27H0v-7.2H5.63V0H16.77V11.07h6.88Z"/><path class="cls-1" d="M37.83,8H26.7V0H37.83Zm-11.14,3H37.83V44.28H26.7Z"/><path class="cls-1" d="M99.06,18.27H92.19V33c0,2.69,1.57,3.27,4,3.27.91,0,1.9-.13,2.89-.13v8.19c-2,.06-4.06.33-6.09.33-9.5,0-11.93-2.75-11.93-12V18.27H75.41v-7.2H81V0H92.19V11.07h6.88Z"/></svg>